<svg xmlns="http://www.w3.org/2000/svg" xmlns:xlink="http://www.w3.org/1999/xlink" version="1.1" x="0px" y="0px" viewBox="0 0 100 125" enable-background="new 0 0 100 100" xml:space="preserve"><path d="M32.081,65.818C31.596,75.59,38.515,82.656,47,86.916V91c0,1.657,1.342,3,3,3s3-1.343,3-3v-4.078  c8.522-4.25,15.406-11.29,14.919-21.105c10.672,2.976,23.084,0.319,23.999-7.513c1.133-9.661-14.625-18.391-24.305-21.431  l8.248-6.52C76.581,29.784,77,28.917,77,28V17.242l5.121-5.121c1.172-1.172,1.172-3.07,0-4.242s-3.07-1.172-4.242,0l-6,6  C71.316,14.441,71,15.205,71,16v10.547l-6.855,5.42c-0.172-0.642-0.367-1.278-0.593-1.906C64.457,28.517,65,26.814,65,25  c0-3.505-1.922-6.634-4.927-8.83l4.048-4.048c1.172-1.172,1.172-3.07,0-4.242s-3.07-1.172-4.242,0l-5.663,5.663  C52.869,13.224,51.473,13,50,13s-2.869,0.224-4.216,0.542l-5.663-5.663c-1.172-1.172-3.07-1.172-4.242,0s-1.172,3.07,0,4.242  l4.048,4.048C36.922,18.366,35,21.495,35,25c0,1.814,0.544,3.517,1.448,5.06c-0.225,0.628-0.421,1.264-0.593,1.906L29,26.547V16  c0-0.795-0.316-1.559-0.879-2.121l-6-6c-1.172-1.172-3.07-1.172-4.242,0s-1.172,3.07,0,4.242L23,17.242V28  c0,0.917,0.419,1.784,1.14,2.354l8.247,6.519C18.6,41.205,7.168,50.511,8.082,58.305C8.984,66.017,21.159,68.864,32.081,65.818z   M50,81.707C47.704,80.589,42.452,77.63,39.723,73h20.552C57.546,77.631,52.292,80.59,50,81.707z M38,67  c0-1.219,0.126-2.437,0.37-3.636c2.873-1.47,5.487-3.223,7.929-5.962C47.311,57.736,48.778,58,50,58c1.225,0,2.724-0.276,3.7-0.598  c2.236,2.507,4.951,4.438,7.929,5.962C61.874,64.563,62,65.781,62,67H38z M64.694,42.244c14.123,4.087,21.621,12.331,21.265,15.363  c-0.451,3.796-17.308,6.282-27.037-3.446C61.659,51.504,63.94,47.072,64.694,42.244z M50,19c4.878,0,9,2.748,9,6  c0,2.585-3.329,6-9,6c-4.091,0-9-2.391-9-6C41,21.748,45.122,19,50,19z M41.328,34.791C43.511,36.032,46.992,37,50,37  c2.978,0,6.48-0.962,8.672-2.209c1.467,7.591-2.343,17.413-8.883,17.175C43.715,51.736,39.858,42.395,41.328,34.791z M35.306,42.245  c0.786,5.03,3.103,9.324,5.771,11.916c-0.036,0.036-0.065,0.08-0.101,0.115c-9.693,9.554-26.483,7.145-26.936,3.331  C13.684,54.569,21.2,46.325,35.306,42.245z"/><text x="0" y="115" fill="#000000" font-size="5px" font-weight="bold" font-family="'Helvetica Neue', Helvetica, Arial-Unicode, Arial, Sans-serif">Created by Ayub Irawan</text><text x="0" y="120" fill="#000000" font-size="5px" font-weight="bold" font-family="'Helvetica Neue', Helvetica, Arial-Unicode, Arial, Sans-serif">from the Noun Project</text></svg>